<svg xmlns="http://www.w3.org/2000/svg" width="28" height="590" viewBox="0 0 28 590">
  <g id="Wireframes_Device_Pencil" data-name="Wireframes/Device/ Pencil" transform="translate(27 2) rotate(90)">
    <g id="Pencil" transform="translate(0 1)">
      <g id="Pencil-2" data-name="Pencil" transform="translate(0)" fill="#fff" stroke-miterlimit="10">
        <path d="M 523.1011352539062 25 L 12.00004386901855 25 C 8.527615547180176 25 5.263043880462646 23.64778518676758 2.807686805725098 21.19235801696777 C 0.352258175611496 18.73699951171875 -0.9999561309814453 15.47242832183838 -0.9999561309814453 12 C -0.9999561309814453 8.527571678161621 0.352258175611496 5.263000011444092 2.807686805725098 2.807642936706543 C 5.263043880462646 0.3522142767906189 8.527615547180176 -1 12.00004386901855 -1 L 523.0401611328125 -1 C 523.7406616210938 -1 524.4447021484375 -0.9324285984039307 525.132568359375 -0.7991428375244141 L 572.4817504882812 8.374785423278809 C 573.4908447265625 8.570285797119141 574.3333740234375 9.083356857299805 574.91845703125 9.858642578125 C 575.4413452148438 10.55150032043457 575.7262573242188 11.42764282226562 575.7208251953125 12.32578563690186 C 575.7153930664062 13.22399997711182 575.419921875 14.09671401977539 574.8887329101562 14.78314304351807 C 574.2943725585938 15.55135726928711 573.4456176757812 16.05428504943848 572.4342651367188 16.23764228820801 L 525.0629272460938 24.82371520996094 C 524.417236328125 24.94071388244629 523.7572021484375 25 523.1011352539062 25 Z" stroke="none"/>
        <path d="M 12 0 C 5.37255859375 0 0 5.372615814208984 0 12 C 0 18.62738418579102 5.37255859375 24 12 24 L 523.10107421875 24 C 523.6991577148438 24 524.2960205078125 23.94630813598633 524.8844604492188 23.83969306945801 L 572.2559204101562 15.2536153793335 C 575.5223999023438 14.66153812408447 575.5506591796875 9.987922668457031 572.29150390625 9.356461524963379 L 524.9423217773438 0.1825389862060547 C 524.3155517578125 0.06115341186523438 523.6785888671875 0 523.0401611328125 0 L 12 0 M 12 -2 L 523.0401611328125 -2 C 523.8042602539062 -2 524.5721435546875 -1.926307678222656 525.3225708007812 -1.781000137329102 L 572.6719360351562 7.392999649047852 C 573.927490234375 7.63623046875 574.9803466796875 8.280538558959961 575.7167358398438 9.256307601928711 C 576.3709716796875 10.12330722808838 576.7274780273438 11.21553802490234 576.7207641601562 12.33184623718262 C 576.7140502929688 13.4482307434082 576.3442993164062 14.53607654571533 575.6796264648438 15.39507675170898 C 574.931640625 16.36184692382812 573.87109375 16.99346160888672 572.6126098632812 17.22153854370117 L 525.2411499023438 25.80761528015137 C 524.5365600585938 25.9353084564209 523.8165283203125 26 523.10107421875 26 L 12 26 C 8.260498046875 26 4.74481201171875 24.54376983642578 2.1004638671875 21.89946174621582 C -0.54376220703125 19.25522994995117 -2 15.73953819274902 -2 12 C -2 8.260461807250977 -0.54376220703125 4.744770050048828 2.1004638671875 2.10053825378418 C 4.74481201171875 -0.5437698364257812 8.260498046875 -2 12 -2 Z" stroke="none" fill="#d8d8d2"/>
      </g>
      <rect id="Gorge" width="515" height="14" rx="7" transform="translate(6 5)" fill="#f7f7f7"/>
      <path id="Tip" d="M.5,16V0" transform="translate(548 4)" fill="none" stroke="#d8d8d2" stroke-linecap="square" stroke-miterlimit="10" stroke-width="2"/>
    </g>
    <g id="Branding" transform="translate(69 18) rotate(180)">
      <path id="_" data-name="" d="M5.917,10a1.731,1.731,0,0,1-.755-.195,1.986,1.986,0,0,0-.879-.217,2.09,2.09,0,0,0-.938.226A1.635,1.635,0,0,1,2.637,10c-.7,0-1.2-.7-1.593-1.263A6.257,6.257,0,0,1,0,5.481a3.425,3.425,0,0,1,.417-1.8A2.54,2.54,0,0,1,2.5,2.422h.048a2.563,2.563,0,0,1,.98.263,1.76,1.76,0,0,0,.612.184,2.193,2.193,0,0,0,.61-.161,3.929,3.929,0,0,1,1.3-.286A2.21,2.21,0,0,1,7.9,3.413l-.014.009A2.268,2.268,0,0,0,6.8,5.33,2.216,2.216,0,0,0,8.152,7.34a.519.519,0,0,0-.03.08,5.081,5.081,0,0,1-.671,1.346C7.022,9.416,6.582,10,5.917,10Zm-1.7-7.7a1.125,1.125,0,0,1-.132-.008,2,2,0,0,1,.5-1.541A2.113,2.113,0,0,1,6.09,0a2.132,2.132,0,0,1-.556,1.57A1.763,1.763,0,0,1,4.212,2.3Z" fill="#bfbfbf"/>
      <path id="Pencil-3" data-name="Pencil" d="M17.968,7a1.894,1.894,0,0,1-1.991-2.088V4.06a1.905,1.905,0,0,1,1.991-2.074,1.63,1.63,0,0,1,1.824,1.421h-.727a.973.973,0,0,0-1.088-.76c-.809,0-1.273.526-1.273,1.444v.829a1.252,1.252,0,0,0,1.273,1.417c.628,0,1.006-.235,1.125-.7h.727C19.8,6.317,19.206,7,17.968,7ZM7.283,7A1.926,1.926,0,0,1,5.245,4.889V4.1A1.941,1.941,0,0,1,7.222,1.986,1.94,1.94,0,0,1,9.2,4.1v.592H5.977v.25a1.274,1.274,0,0,0,1.3,1.412,1.063,1.063,0,0,0,1.079-.583H9.13A1.733,1.733,0,0,1,7.283,7Zm-.06-4.37A1.252,1.252,0,0,0,5.977,4.042v.087h2.49V4.042A1.252,1.252,0,0,0,7.222,2.63Zm4.138,4.292h-.726V2.065h.726v.889H11.4a1.387,1.387,0,0,1,1.481-.968,1.484,1.484,0,0,1,1.657,1.6V6.92h-.726V3.829c0-.773-.392-1.2-1.1-1.2-.993,0-1.347.818-1.347,1.583V6.921Zm13.273,0h-.726V.084h.726V6.92Zm-2.583,0h-.727V2.065h.727V6.92Zm-21.315,0H0V.6H2.263A1.863,1.863,0,0,1,4.254,2.546,1.863,1.863,0,0,1,2.263,4.491H.736V6.92Zm0-5.647V3.82h1.5A1.153,1.153,0,0,0,3.5,2.546,1.152,1.152,0,0,0,2.236,1.274Zm20.945-.181a.536.536,0,0,1-.542-.542.549.549,0,1,1,1.1,0A.537.537,0,0,1,21.681,1.093Z" transform="translate(13.947 1.7)" fill="#bfbfbf"/>
    </g>
  </g>
</svg>
